<mxfile host="65bd71144e">
    <diagram id="cQL_nvhnl4sfw9fVPC4W" name="Page-1">
        <mxGraphModel dx="1222" dy="950" grid="1" gridSize="10" guides="1" tooltips="1" connect="1" arrows="1" fold="1" page="1" pageScale="1" pageWidth="850" pageHeight="1100" math="0" shadow="0">
            <root>
                <mxCell id="0"/>
                <mxCell id="1" parent="0"/>
                <mxCell id="2" value="" style="rounded=0;whiteSpace=wrap;html=1;fillColor=#000000;" vertex="1" parent="1">
                    <mxGeometry x="120" y="120" width="300" height="950" as="geometry"/>
                </mxCell>
                <mxCell id="4" value="&lt;b&gt;&lt;font style=&quot;font-size: 20px;&quot;&gt;Shapes&lt;/font&gt;&lt;/b&gt;" style="rounded=1;whiteSpace=wrap;html=1;fillColor=#FF8000;" vertex="1" parent="1">
                    <mxGeometry x="210" y="60" width="120" height="60" as="geometry"/>
                </mxCell>
                <mxCell id="6" value="Terminal" style="ellipse;whiteSpace=wrap;html=1;fontSize=20;fillColor=#008a00;fontColor=#ffffff;strokeColor=#005700;" vertex="1" parent="1">
                    <mxGeometry x="130" y="180" width="120" height="80" as="geometry"/>
                </mxCell>
                <mxCell id="8" value="Terminal" style="rounded=1;whiteSpace=wrap;html=1;fontSize=20;fillColor=#a20025;fontColor=#ffffff;strokeColor=#6F0000;" vertex="1" parent="1">
                    <mxGeometry x="290" y="190" width="120" height="60" as="geometry"/>
                </mxCell>
                <mxCell id="9" value="Process" style="rounded=0;whiteSpace=wrap;html=1;fontSize=20;fillColor=#1ba1e2;fontColor=#ffffff;strokeColor=#006EAF;" vertex="1" parent="1">
                    <mxGeometry x="210" y="350" width="120" height="60" as="geometry"/>
                </mxCell>
                <mxCell id="10" value="Decision" style="rhombus;whiteSpace=wrap;html=1;fontSize=20;fillColor=#d80073;fontColor=#ffffff;strokeColor=#A50040;" vertex="1" parent="1">
                    <mxGeometry x="220" y="490" width="100" height="140" as="geometry"/>
                </mxCell>
                <mxCell id="12" value="Input/Output" style="shape=parallelogram;perimeter=parallelogramPerimeter;whiteSpace=wrap;html=1;fixedSize=1;fontSize=20;fillColor=#60a917;fontColor=#ffffff;strokeColor=#2D7600;" vertex="1" parent="1">
                    <mxGeometry x="195" y="700" width="150" height="70" as="geometry"/>
                </mxCell>
                <mxCell id="13" value="" style="endArrow=classic;html=1;fontSize=20;fillColor=#6a00ff;strokeColor=#3700CC;strokeWidth=5;" edge="1" parent="1">
                    <mxGeometry width="50" height="50" relative="1" as="geometry">
                        <mxPoint x="155" y="890" as="sourcePoint"/>
                        <mxPoint x="385" y="890" as="targetPoint"/>
                    </mxGeometry>
                </mxCell>
                <mxCell id="14" value="Flow Line" style="text;html=1;align=center;verticalAlign=middle;resizable=0;points=[];autosize=1;strokeColor=none;fillColor=none;fontSize=20;" vertex="1" parent="1">
                    <mxGeometry x="210" y="850" width="110" height="40" as="geometry"/>
                </mxCell>
                <mxCell id="15" value="Connectors" style="ellipse;whiteSpace=wrap;html=1;aspect=fixed;fontSize=20;fillColor=#0050ef;fontColor=#ffffff;strokeColor=#001DBC;" vertex="1" parent="1">
                    <mxGeometry x="210" y="950" width="110" height="110" as="geometry"/>
                </mxCell>
            </root>
        </mxGraphModel>
    </diagram>
</mxfile>